<svg width="86" height="16" viewBox="0 0 86 16" fill="none" xmlns="http://www.w3.org/2000/svg">
<g clip-path="url(#clip0)">
<path fill-rule="evenodd" clip-rule="evenodd" d="M7.81969 2.12663C7.86574 1.9806 7.95715 1.85306 8.08063 1.76252C8.20411 1.67198 8.35324 1.62317 8.50636 1.62317C8.65947 1.62317 8.80861 1.67198 8.93209 1.76252C9.05557 1.85306 9.14698 1.9806 9.19302 2.12663L10.433 5.93996H14.433C14.5916 5.93397 14.7478 5.98006 14.8777 6.07119C15.0077 6.16232 15.1042 6.29348 15.1526 6.44464C15.2009 6.5958 15.1985 6.75863 15.1456 6.90827C15.0927 7.0579 14.9923 7.18611 14.8597 7.2733L11.613 9.62663L12.853 13.4466C12.9021 13.5921 12.9033 13.7495 12.8566 13.8958C12.8098 14.042 12.7175 14.1695 12.5932 14.2596C12.4688 14.3497 12.3189 14.3977 12.1654 14.3966C12.0118 14.3954 11.8627 14.3452 11.7397 14.2533L8.48636 11.8733L5.23969 14.2333C5.1167 14.3252 4.96753 14.3754 4.81399 14.3766C4.66044 14.3777 4.51055 14.3297 4.38621 14.2396C4.26186 14.1495 4.16958 14.022 4.12283 13.8758C4.07608 13.7295 4.07732 13.5721 4.12636 13.4266L5.36636 9.60663L2.11969 7.2533C1.98708 7.16611 1.88666 7.0379 1.83377 6.88827C1.78088 6.73863 1.77844 6.5758 1.82681 6.42464C1.87518 6.27348 1.9717 6.14232 2.10164 6.05119C2.23157 5.96006 2.38776 5.91397 2.54636 5.91996H6.54636L7.81969 2.12663Z" fill="#FDBC15"/>
<path fill-rule="evenodd" clip-rule="evenodd" d="M25.8197 2.12663C25.8657 1.9806 25.9571 1.85306 26.0806 1.76252C26.2041 1.67198 26.3532 1.62317 26.5064 1.62317C26.6595 1.62317 26.8086 1.67198 26.9321 1.76252C27.0556 1.85306 27.147 1.9806 27.193 2.12663L28.433 5.93996H32.433C32.5916 5.93397 32.7478 5.98006 32.8777 6.07119C33.0077 6.16232 33.1042 6.29348 33.1526 6.44464C33.2009 6.5958 33.1985 6.75863 33.1456 6.90827C33.0927 7.0579 32.9923 7.18611 32.8597 7.2733L29.613 9.62663L30.853 13.4466C30.9021 13.5921 30.9033 13.7495 30.8566 13.8958C30.8098 14.042 30.7175 14.1695 30.5932 14.2596C30.4688 14.3497 30.3189 14.3977 30.1654 14.3966C30.0118 14.3954 29.8627 14.3452 29.7397 14.2533L26.4864 11.8733L23.2397 14.2333C23.1167 14.3252 22.9675 14.3754 22.814 14.3766C22.6604 14.3777 22.5105 14.3297 22.3862 14.2396C22.2619 14.1495 22.1696 14.022 22.1228 13.8758C22.0761 13.7295 22.0773 13.5721 22.1264 13.4266L23.3664 9.60663L20.1197 7.2533C19.9871 7.16611 19.8867 7.0379 19.8338 6.88827C19.7809 6.73863 19.7784 6.5758 19.8268 6.42464C19.8752 6.27348 19.9717 6.14232 20.1016 6.05119C20.2316 5.96006 20.3878 5.91397 20.5464 5.91996H24.5464L25.8197 2.12663Z" fill="#FDBC15"/>
<path fill-rule="evenodd" clip-rule="evenodd" d="M43.8197 2.12663C43.8657 1.9806 43.9571 1.85306 44.0806 1.76252C44.2041 1.67198 44.3532 1.62317 44.5064 1.62317C44.6595 1.62317 44.8086 1.67198 44.9321 1.76252C45.0556 1.85306 45.147 1.9806 45.193 2.12663L46.433 5.93996H50.433C50.5916 5.93397 50.7478 5.98006 50.8777 6.07119C51.0077 6.16232 51.1042 6.29348 51.1526 6.44464C51.2009 6.5958 51.1985 6.75863 51.1456 6.90827C51.0927 7.0579 50.9923 7.18611 50.8597 7.2733L47.613 9.62663L48.853 13.4466C48.9021 13.5921 48.9033 13.7495 48.8566 13.8958C48.8098 14.042 48.7175 14.1695 48.5932 14.2596C48.4688 14.3497 48.3189 14.3977 48.1654 14.3966C48.0118 14.3954 47.8627 14.3452 47.7397 14.2533L44.4864 11.8733L41.2397 14.2333C41.1167 14.3252 40.9675 14.3754 40.814 14.3766C40.6604 14.3777 40.5105 14.3297 40.3862 14.2396C40.2619 14.1495 40.1696 14.022 40.1228 13.8758C40.0761 13.7295 40.0773 13.5721 40.1264 13.4266L41.3664 9.60663L38.1197 7.2533C37.9871 7.16611 37.8867 7.0379 37.8338 6.88827C37.7809 6.73863 37.7784 6.5758 37.8268 6.42464C37.8752 6.27348 37.9717 6.14232 38.1016 6.05119C38.2316 5.96006 38.3878 5.91397 38.5464 5.91996H42.5464L43.8197 2.12663Z" fill="#FDBC15"/>
<path fill-rule="evenodd" clip-rule="evenodd" d="M61.8197 2.12663C61.8657 1.9806 61.9571 1.85306 62.0806 1.76252C62.2041 1.67198 62.3532 1.62317 62.5064 1.62317C62.6595 1.62317 62.8086 1.67198 62.9321 1.76252C63.0556 1.85306 63.147 1.9806 63.193 2.12663L64.433 5.93996H68.433C68.5916 5.93397 68.7478 5.98006 68.8777 6.07119C69.0077 6.16232 69.1042 6.29348 69.1526 6.44464C69.2009 6.5958 69.1985 6.75863 69.1456 6.90827C69.0927 7.0579 68.9923 7.18611 68.8597 7.2733L65.613 9.62663L66.853 13.4466C66.9021 13.5921 66.9033 13.7495 66.8566 13.8958C66.8098 14.042 66.7175 14.1695 66.5932 14.2596C66.4688 14.3497 66.3189 14.3977 66.1654 14.3966C66.0118 14.3954 65.8627 14.3452 65.7397 14.2533L62.4864 11.8733L59.2397 14.2333C59.1167 14.3252 58.9675 14.3754 58.814 14.3766C58.6604 14.3777 58.5105 14.3297 58.3862 14.2396C58.2619 14.1495 58.1696 14.022 58.1228 13.8758C58.0761 13.7295 58.0773 13.5721 58.1264 13.4266L59.3664 9.60663L56.1197 7.2533C55.9871 7.16611 55.8867 7.0379 55.8338 6.88827C55.7809 6.73863 55.7784 6.5758 55.8268 6.42464C55.8752 6.27348 55.9717 6.14232 56.1016 6.05119C56.2316 5.96006 56.3878 5.91397 56.5464 5.91996H60.5464L61.8197 2.12663Z" fill="#FDBC15"/>
<g clip-path="url(#clip1)">
<path d="M85.3726 6.84623L82.4692 9.81997L83.1517 14.0287C83.2119 14.3645 82.8473 14.6105 82.5559 14.4512L78.9863 12.4741V1.51624C79.138 1.51624 79.2897 1.58665 79.3547 1.7329L81.1476 5.55165L85.1397 6.15831C85.4733 6.2179 85.5963 6.6106 85.3726 6.84623V6.84623Z" fill="#ECEFF1"/>
<path d="M78.9865 1.51624V12.4742L75.4169 14.4513C75.1304 14.6121 74.7604 14.3684 74.8211 14.0288L75.5036 9.82L72.6003 6.84624C72.3766 6.61062 72.499 6.21791 72.8332 6.15833L76.8253 5.55166L78.6182 1.7329C78.6832 1.58665 78.8349 1.51624 78.9865 1.51624V1.51624Z" fill="#FFC107"/>
</g>
</g>
<defs>
<clipPath id="clip0">
<rect width="85" height="16" fill="white" transform="translate(0.486328)"/>
</clipPath>
<clipPath id="clip1">
<rect width="13" height="13" fill="white" transform="translate(72.4863 1.5)"/>
</clipPath>
</defs>
</svg>
