<svg width="24" height="60" viewBox="0 0 24 60" fill="none" xmlns="http://www.w3.org/2000/svg">
<path d="M20 2H4C2.89543 2 2 2.89543 2 4V20C2 21.1046 2.89543 22 4 22H20C21.1046 22 22 21.1046 22 20V4C22 2.89543 21.1046 2 20 2Z" fill="#6A983C" stroke="#46760A" stroke-width="1.5" stroke-linecap="round" stroke-linejoin="bevel"/>
<path d="M6.55981 12.85L9.61981 15.91L17.4398 8.08997" stroke="#FDFDFD" stroke-width="1.5" stroke-linecap="round" stroke-linejoin="round"/>
<path d="M20 38H4C2.89543 38 2 38.8954 2 40V56C2 57.1046 2.89543 58 4 58H20C21.1046 58 22 57.1046 22 56V40C22 38.8954 21.1046 38 20 38Z" stroke="#D1D1D1" stroke-width="1.5" stroke-linecap="round" stroke-linejoin="bevel"/>
</svg>
