<svg width="75" height="16" viewBox="0 0 75 16" fill="none" xmlns="http://www.w3.org/2000/svg">
<g clip-path="url(#clip0)">
<path d="M15.4239 9.93671C14.3781 14.2224 10.1294 16.8306 5.93405 15.7619C1.74041 14.6934 -0.812529 10.3525 0.233801 6.06702C1.27915 1.78083 5.52785 -0.827623 9.72198 0.24086C13.9171 1.30934 16.4698 5.65077 15.4239 9.93671Z" fill="#FCA014"/>
<path d="M11.2812 6.86114C11.4371 5.79666 10.6437 5.22442 9.559 4.84267L9.91087 3.40069L9.05174 3.18195L8.70917 4.58592C8.48331 4.52843 8.25133 4.47418 8.02083 4.42043L8.36585 3.0072L7.5072 2.78845L7.15508 4.22993C6.96813 4.18643 6.78461 4.14343 6.60647 4.09819L6.60745 4.09368L5.42262 3.79143L5.19408 4.72892C5.19408 4.72892 5.83151 4.87817 5.81806 4.88742C6.16602 4.97617 6.2289 5.21141 6.21838 5.39791L5.81756 7.04064C5.84154 7.04689 5.87262 7.05589 5.90688 7.06989C5.87825 7.06264 5.84767 7.05463 5.8161 7.04689L5.25427 9.3481C5.21169 9.4561 5.10378 9.61809 4.86055 9.5566C4.86912 9.56935 4.23608 9.39735 4.23608 9.39735L3.80957 10.4021L4.9276 10.6868C5.13559 10.7401 5.33942 10.7958 5.54007 10.8483L5.18453 12.3068L6.04269 12.5256L6.39481 11.0826C6.62923 11.1476 6.8568 11.2076 7.07947 11.2641L6.72858 12.7003L7.58771 12.919L7.94326 11.4633C9.40827 11.7466 10.5099 11.6323 10.9736 10.2786C11.3473 9.1886 10.955 8.55987 10.1842 8.14987C10.7455 8.01762 11.1684 7.64038 11.2812 6.86114ZM9.31822 9.67335C9.05272 10.7633 7.25639 10.1741 6.67401 10.0263L7.14579 8.09412C7.72817 8.24261 9.5957 8.53661 9.31822 9.67335ZM9.58396 6.84539C9.34171 7.83687 7.8466 7.33313 7.36161 7.20963L7.78934 5.45717C8.27434 5.58066 9.83624 5.81115 9.58396 6.84539Z" fill="white"/>
<g opacity="0.5">
<path d="M22.9462 4.84122C23.5812 4.84122 24.1298 4.95746 24.5908 5.18571C25.054 5.41621 25.4362 5.72671 25.7428 6.1172C26.0453 6.50969 26.2704 6.96843 26.4158 7.49418C26.5601 8.02142 26.6326 8.58816 26.6326 9.1949C26.6326 10.1269 26.4654 11.0074 26.128 11.8374C25.7905 12.6686 25.3327 13.3896 24.7503 14.0046C24.1684 14.6188 23.4813 15.1031 22.689 15.4608C21.8979 15.8188 21.0378 15.9978 20.1143 15.9978C19.9949 15.9978 19.7849 15.9943 19.4883 15.988C19.1918 15.9818 18.8509 15.9505 18.4692 15.8978C18.085 15.843 17.6788 15.762 17.2498 15.6536C16.8211 15.5471 16.414 15.3978 16.0305 15.2083L19.4592 0.48954L22.5302 0.0032959L21.3025 5.22647C21.5653 5.10547 21.8301 5.01171 22.0944 4.94347C22.3589 4.87622 22.6428 4.84122 22.9462 4.84122ZM20.3702 13.5088C20.8327 13.5088 21.2685 13.3926 21.6779 13.1643C22.0885 12.9358 22.4428 12.6273 22.7397 12.2431C23.0365 11.8571 23.2714 11.4224 23.4427 10.9366C23.614 10.4509 23.7006 9.94414 23.7006 9.4169C23.7006 8.76916 23.5946 8.26392 23.3835 7.89867C23.1723 7.53493 22.7815 7.35193 22.214 7.35193C22.0281 7.35193 21.7885 7.38818 21.4914 7.45293C21.1934 7.52167 20.9267 7.66443 20.6876 7.87917L19.3804 13.4261C19.4592 13.4403 19.529 13.4538 19.5884 13.4666C19.6467 13.4803 19.711 13.4901 19.7751 13.4968C19.8429 13.5046 19.9205 13.5086 20.0142 13.5086C20.1079 13.5086 20.2251 13.5088 20.3702 13.5088Z" fill="#666666"/>
<path d="M29.8172 15.716H26.884L29.3611 5.06696H32.3144L29.8172 15.716ZM31.2446 3.76948C30.8352 3.76948 30.464 3.64498 30.1346 3.39548C29.8025 3.14748 29.6381 2.76574 29.6381 2.25125C29.6381 1.96825 29.6944 1.70275 29.806 1.45226C29.9193 1.20226 30.0673 0.987019 30.2528 0.804022C30.438 0.622525 30.6526 0.477524 30.8964 0.368276C31.1415 0.260778 31.4024 0.207031 31.6804 0.207031C32.0895 0.207031 32.4587 0.33153 32.7893 0.581026C33.1187 0.831772 33.2844 1.21352 33.2844 1.72526C33.2844 2.00925 33.2283 2.27575 33.1158 2.52574C33.0039 2.77574 32.8559 2.99098 32.6704 3.17398C32.4866 3.35573 32.2701 3.50023 32.0269 3.60847C31.7814 3.71772 31.5216 3.76948 31.2446 3.76948Z" fill="#666666"/>
<path d="M34.8841 2.41373L37.9563 1.92749L37.2019 5.06644H40.4921L39.898 7.5359H36.6276L35.7565 11.2608C35.6762 11.5713 35.6307 11.8613 35.618 12.1308C35.6035 12.4016 35.637 12.6341 35.7163 12.8298C35.7951 13.0261 35.9368 13.1773 36.1424 13.2843C36.3469 13.3931 36.6398 13.4478 37.024 13.4478C37.3404 13.4478 37.6487 13.4171 37.9468 13.3561C38.2431 13.2961 38.5433 13.2126 38.8472 13.1033L39.066 15.4123C38.6696 15.5608 38.2404 15.6885 37.7779 15.796C37.3147 15.905 36.7663 15.9575 36.1326 15.9575C35.2213 15.9575 34.5149 15.8193 34.0115 15.544C33.5089 15.2668 33.1536 14.888 32.941 14.4086C32.7313 13.9308 32.6375 13.3801 32.6637 12.7596C32.6909 12.1376 32.7826 11.4838 32.941 10.7954L34.8841 2.41373Z" fill="#666666"/>
</g>
<path d="M40.364 11.4636C40.364 10.5464 40.5094 9.68143 40.7998 8.87169C41.0898 8.06121 41.5075 7.35246 42.0495 6.74422C42.5895 6.13898 43.2475 5.65949 44.022 5.30749C44.7928 4.9575 45.6559 4.78101 46.607 4.78101C47.2023 4.78101 47.7341 4.83851 48.2019 4.95376C48.6718 5.07 49.0968 5.22025 49.4812 5.40875L48.4696 7.75871C48.2054 7.64921 47.9311 7.55271 47.6475 7.46521C47.3636 7.37596 47.0171 7.33297 46.6072 7.33297C45.6282 7.33297 44.8542 7.67771 44.2782 8.36495C43.7044 9.05269 43.4154 9.97842 43.4154 11.1397C43.4154 11.8279 43.5608 12.3844 43.8524 12.8101C44.1426 13.2359 44.6788 13.4476 45.4572 13.4476C45.8413 13.4476 46.2121 13.4066 46.5671 13.3266C46.9249 13.2456 47.2408 13.1436 47.519 13.0231L47.738 15.4321C47.367 15.5791 46.9579 15.7118 46.5091 15.8281C46.0594 15.9403 45.524 15.9986 44.9032 15.9986C44.0837 15.9986 43.3899 15.8761 42.8225 15.6348C42.2548 15.3898 41.7857 15.0646 41.4162 14.6526C41.0448 14.2396 40.778 13.7574 40.6131 13.2039C40.4482 12.6509 40.364 12.0699 40.364 11.4636Z" fill="#666666"/>
<path d="M53.3937 15.9986C52.6936 15.9986 52.0855 15.8896 51.5697 15.6738C51.0553 15.4581 50.6293 15.1553 50.2924 14.7629C49.9549 14.3724 49.7024 13.9096 49.5294 13.3764C49.3564 12.8434 49.2732 12.2531 49.2732 11.6064C49.2732 10.7952 49.4007 9.98417 49.6583 9.17544C49.9148 8.36495 50.2953 7.63671 50.7989 6.98947C51.2986 6.34124 51.915 5.81124 52.6407 5.39799C53.3658 4.9875 54.1997 4.78101 55.1364 4.78101C55.8238 4.78101 56.4286 4.89025 56.9516 5.106C57.472 5.32124 57.9008 5.62649 58.2397 6.01699C58.5749 6.40948 58.8296 6.87023 59.0009 7.40422C59.1734 7.93621 59.2586 8.52795 59.2586 9.17519C59.2586 9.98392 59.1328 10.7949 58.8832 11.6061C58.6334 12.4134 58.2627 13.1434 57.7733 13.7921C57.2849 14.4394 56.6741 14.9691 55.9405 15.3806C55.2079 15.7921 54.3583 15.9986 53.3937 15.9986ZM54.8597 7.33322C54.4248 7.33322 54.0404 7.46221 53.7113 7.71696C53.3809 7.9747 53.1035 8.2987 52.8798 8.68945C52.6537 9.08194 52.4861 9.50993 52.3728 9.97518C52.2605 10.4414 52.2054 10.8822 52.2054 11.3009C52.2054 11.9766 52.3121 12.5029 52.5218 12.8816C52.7344 13.2584 53.1164 13.4479 53.6716 13.4479C54.1079 13.4479 54.4904 13.3199 54.8215 13.0624C55.1499 12.8066 55.4276 12.4824 55.653 12.0909C55.8776 11.7004 56.0467 11.2712 56.16 10.8052C56.2708 10.3404 56.3274 9.89718 56.3274 9.47918C56.3274 8.80519 56.2212 8.2777 56.0095 7.89946C55.7981 7.52271 55.4144 7.33322 54.8597 7.33322Z" fill="#666666"/>
<path d="M62.4557 15.716H59.52L61.9971 5.06696H64.9518L62.4557 15.716ZM63.8808 3.76948C63.4717 3.76948 63.1007 3.64498 62.7718 3.39548C62.4415 3.14748 62.2756 2.76574 62.2756 2.25125C62.2756 1.96825 62.3326 1.70275 62.4444 1.45226C62.5562 1.20226 62.7053 0.987019 62.8907 0.804022C63.075 0.622525 63.2916 0.477524 63.5348 0.368276C63.7785 0.260778 64.0393 0.207031 64.3163 0.207031C64.7265 0.207031 65.0969 0.33153 65.4268 0.581026C65.7569 0.831772 65.9235 1.21352 65.9235 1.72526C65.9235 2.00925 65.8643 2.27575 65.7535 2.52574C65.6426 2.77574 65.4936 2.99098 65.3088 3.17398C65.1229 3.35573 64.909 3.50023 64.6653 3.60847C64.4196 3.71772 64.1593 3.76948 63.8808 3.76948Z" fill="#666666"/>
<path d="M67.0663 5.55115C67.2889 5.48465 67.5375 5.40466 67.8079 5.31766C68.0793 5.23066 68.3825 5.14966 68.7212 5.07666C69.0561 5.00141 69.4342 4.94041 69.85 4.89316C70.2657 4.84492 70.7394 4.82141 71.2658 4.82141C72.8127 4.82141 73.8791 5.28166 74.4679 6.1994C75.0561 7.11713 75.1579 8.37311 74.7762 9.96508L73.4269 15.715H70.4744L71.7821 10.0861C71.8619 9.73459 71.9245 9.39484 71.9708 9.06285C72.0175 8.73385 72.0148 8.44386 71.9602 8.19286C71.9081 7.94487 71.7853 7.74187 71.5946 7.58462C71.4011 7.42987 71.1087 7.35213 70.712 7.35213C70.3296 7.35213 69.9405 7.39413 69.5433 7.47512L67.6207 15.7147H64.667L67.0663 5.55115Z" fill="#666666"/>
</g>
<defs>
<clipPath id="clip0">
<rect width="75" height="16" fill="white"/>
</clipPath>
</defs>
</svg>
