<svg width="21" height="20" viewBox="0 0 21 20" fill="none" xmlns="http://www.w3.org/2000/svg">
<path fill-rule="evenodd" clip-rule="evenodd" d="M9.42397 2.65826C9.48153 2.47572 9.59578 2.31629 9.75014 2.20312C9.90449 2.08995 10.0909 2.02893 10.2823 2.02893C10.4737 2.02893 10.6601 2.08995 10.8145 2.20312C10.9688 2.31629 11.0831 2.47572 11.1406 2.65826L12.6906 7.42492H17.6906C17.8889 7.41743 18.0841 7.47504 18.2465 7.58895C18.409 7.70287 18.5296 7.86683 18.5901 8.05577C18.6505 8.24471 18.6475 8.44826 18.5814 8.6353C18.5153 8.82235 18.3897 8.9826 18.224 9.09159L14.1656 12.0333L15.7156 16.8083C15.7769 16.9901 15.7785 17.1869 15.72 17.3697C15.6616 17.5525 15.5463 17.7119 15.3908 17.8245C15.2354 17.9371 15.048 17.9971 14.8561 17.9957C14.6642 17.9942 14.4777 17.9315 14.324 17.8166L10.2573 14.8416L6.19897 17.7916C6.04522 17.9065 5.85877 17.9692 5.66684 17.9707C5.4749 17.9721 5.28754 17.9121 5.13211 17.7995C4.97668 17.6869 4.86133 17.5275 4.80289 17.3447C4.74445 17.1619 4.746 16.9651 4.8073 16.7833L6.3573 12.0083L2.29897 9.06659C2.1332 8.9576 2.00768 8.79735 1.94157 8.6103C1.87546 8.42326 1.8724 8.21971 1.93286 8.03077C1.99333 7.84183 2.11398 7.67787 2.2764 7.56395C2.43881 7.45004 2.63406 7.39243 2.8323 7.39992H7.8323L9.42397 2.65826Z" fill="#151515"/>
</svg>
