<svg width="24" height="24" viewBox="0 0 24 24" fill="none" xmlns="http://www.w3.org/2000/svg">
<path d="M17.89 20.8498H6.11004C5.79236 20.8501 5.48375 20.7438 5.23358 20.5481C4.9834 20.3523 4.8061 20.0782 4.73004 19.7698L2.08004 9.1598C2.05418 9.05651 2.05222 8.94868 2.07432 8.84452C2.09642 8.74036 2.14199 8.64261 2.20756 8.55872C2.27313 8.47483 2.35698 8.407 2.45272 8.3604C2.54845 8.3138 2.65356 8.28965 2.76004 8.2898H21.24C21.3465 8.28965 21.4516 8.3138 21.5474 8.3604C21.6431 8.407 21.7269 8.47483 21.7925 8.55872C21.8581 8.64261 21.9037 8.74036 21.9258 8.84452C21.9479 8.94868 21.9459 9.05651 21.92 9.1598L19.27 19.7698C19.194 20.0782 19.0167 20.3523 18.7665 20.5481C18.5163 20.7438 18.2077 20.8501 17.89 20.8498V20.8498Z" stroke="#151515" stroke-width="2.5" stroke-linecap="round" stroke-linejoin="round"/>
<path d="M9.7999 3.1499L6.8999 8.2899" stroke="#151515" stroke-width="2.5" stroke-linecap="round" stroke-linejoin="round"/>
<path d="M13.8804 3.1499L16.7904 8.2899" stroke="#151515" stroke-width="2.5" stroke-linecap="round" stroke-linejoin="round"/>
</svg>
