<svg width="17" height="17" viewBox="0 0 17 17" fill="none" xmlns="http://www.w3.org/2000/svg">
<g clip-path="url(#clip0)">
<path fill-rule="evenodd" clip-rule="evenodd" d="M9.70149 3.75998C10.338 3.12346 11.2013 2.76587 12.1015 2.76587C13.0017 2.76587 13.865 3.12346 14.5015 3.75998C15.138 4.3965 15.4956 5.25981 15.4956 6.15998C15.4956 7.06016 15.138 7.92346 14.5015 8.55998L13.6282 9.43331L8.82815 14.2333L4.02815 9.43331L3.15482 8.55998C2.5183 7.92346 2.16071 7.06016 2.16071 6.15998C2.16071 5.25981 2.5183 4.3965 3.15482 3.75998C3.79134 3.12346 4.65464 2.76587 5.55482 2.76587C6.45499 2.76587 7.3183 3.12346 7.95482 3.75998L8.82815 4.63331L9.70149 3.75998Z" stroke="#E6704B" stroke-width="2" stroke-linecap="round" stroke-linejoin="round"/>
</g>
<defs>
<clipPath id="clip0">
<rect width="16" height="16" fill="white" transform="translate(0.828125 0.5)"/>
</clipPath>
</defs>
</svg>
