<svg width="33" height="20" viewBox="0 0 33 20" fill="none" xmlns="http://www.w3.org/2000/svg">
<path d="M20.9609 2.13892H12.0383V17.8611H20.9609V2.13892Z" fill="#FF5F00"/>
<path d="M12.6049 10C12.6049 6.80556 14.1345 3.97222 16.4855 2.13889C14.7576 0.805556 12.5766 0 10.1972 0C4.56042 0 0 4.47222 0 10C0 15.5278 4.56042 20 10.1972 20C12.5766 20 14.7576 19.1944 16.4855 17.8611C14.1345 16.0556 12.6049 13.1944 12.6049 10Z" fill="#EB001B"/>
<path d="M32.9999 10C32.9999 15.5278 28.4395 20 22.8027 20C20.4233 20 18.2423 19.1944 16.5144 17.8611C18.8938 16.0278 20.395 13.1944 20.395 10C20.395 6.80556 18.8654 3.97222 16.5144 2.13889C18.2423 0.805556 20.4233 0 22.8027 0C28.4395 0 32.9999 4.5 32.9999 10Z" fill="#F79E1B"/>
</svg>
