<?xml version="1.0" encoding="iso-8859-1"?>
<!-- Generator: Adobe Illustrator 19.0.0, SVG Export Plug-In . SVG Version: 6.00 Build 0)  -->
<svg version="1.1" id="Capa_1" xmlns="http://www.w3.org/2000/svg" xmlns:xlink="http://www.w3.org/1999/xlink" x="0px" y="0px"
	 viewBox="0 0 512.128 512.128" style="enable-background:new 0 0 512.128 512.128;" xml:space="preserve">
<path style="fill:#388E3C;" d="M512.128,128.064v213.333c0.011,3.578-1.746,6.931-4.693,8.96l-64,42.667
	c-1.808,1.08-3.867,1.668-5.973,1.707c-1.622-0.024-3.22-0.388-4.693-1.067l-188.373-94.08l266.027-177.493
	C511.529,123.887,512.119,125.954,512.128,128.064z"/>
<path style="fill:#66BB6A;" d="M510.421,122.091L244.395,299.584L6.101,180.331c-5.324-2.523-7.594-8.883-5.071-14.207
	c0.84-1.772,2.152-3.278,3.791-4.353l64-42.667c1.796-1.107,3.863-1.698,5.973-1.707h426.667
	C505.042,117.379,508.398,119.137,510.421,122.091z"/>
<path style="fill:#4CAF50;" d="M10.795,160.064h426.667c5.891,0,10.667,4.776,10.667,10.667v213.333
	c0,5.891-4.776,10.667-10.667,10.667H10.795c-5.891,0-10.667-4.776-10.667-10.667V170.731
	C0.128,164.84,4.904,160.064,10.795,160.064z"/>
<g>
	<path style="fill:#81C784;" d="M373.461,352.064h-64c-5.891,0-10.667-4.776-10.667-10.667c0-5.891,4.776-10.667,10.667-10.667
		h55.168c3.23-9.11,10.392-16.28,19.499-19.52v-67.627c-9.106-3.24-16.269-10.41-19.499-19.52h-55.168
		c-5.891,0-10.667-4.776-10.667-10.667c0-5.891,4.776-10.667,10.667-10.667h64c5.891,0,10.667,4.776,10.667,10.667
		c0,5.891,4.776,10.667,10.667,10.667c5.891,0,10.667,4.776,10.667,10.667v85.333c0,5.891-4.776,10.667-10.667,10.667
		c-5.891,0-10.667,4.776-10.667,10.667C384.128,347.289,379.352,352.064,373.461,352.064z"/>
	<path style="fill:#81C784;" d="M138.795,352.064h-64c-5.891,0-10.667-4.776-10.667-10.667c0-5.891-4.776-10.667-10.667-10.667
		s-10.667-4.776-10.667-10.667v-85.333c0-5.891,4.776-10.667,10.667-10.667s10.667-4.776,10.667-10.667
		c0-5.891,4.776-10.667,10.667-10.667h64c5.891,0,10.667,4.776,10.667,10.667c0,5.891-4.776,10.667-10.667,10.667H83.627
		c-3.23,9.11-10.392,16.28-19.499,19.52v67.648c9.106,3.24,16.269,10.41,19.499,19.52h55.168c5.891,0.008,10.66,4.79,10.652,10.681
		c-0.008,5.88-4.772,10.644-10.652,10.652V352.064z"/>
</g>
<polygon style="fill:#FFC107;" points="242.24,117.397 170.795,165.013 170.795,394.731 277.461,394.731 277.461,176.448 
	366.016,117.397 "/>
<g>
</g>
<g>
</g>
<g>
</g>
<g>
</g>
<g>
</g>
<g>
</g>
<g>
</g>
<g>
</g>
<g>
</g>
<g>
</g>
<g>
</g>
<g>
</g>
<g>
</g>
<g>
</g>
<g>
</g>
</svg>
