<svg width="76" height="19" viewBox="0 0 76 19" fill="none" xmlns="http://www.w3.org/2000/svg">
<path d="M28.4159 4.09033H24.2105C24.0712 4.09025 23.9366 4.13917 23.8307 4.22828C23.7248 4.3174 23.6547 4.44085 23.633 4.57639L21.9322 15.2049C21.9244 15.2542 21.9275 15.3046 21.9413 15.3526C21.9552 15.4006 21.9794 15.4451 22.0124 15.483C22.0453 15.5209 22.0862 15.5513 22.1323 15.5722C22.1783 15.593 22.2283 15.6037 22.279 15.6037H24.2867C24.426 15.6037 24.5608 15.5547 24.6666 15.4655C24.7725 15.3762 24.8426 15.2527 24.8641 15.117L25.3228 12.2503C25.3444 12.1148 25.4143 11.9913 25.5201 11.902C25.6258 11.8128 25.7604 11.7637 25.8996 11.7637H27.2309C30.0012 11.7637 31.5999 10.4425 32.0175 7.82427C32.2056 6.67882 32.0255 5.77882 31.4813 5.14851C30.8836 4.45639 29.8234 4.09033 28.4159 4.09033ZM28.9011 7.97215C28.6711 9.45942 27.5181 9.45942 26.4033 9.45942H25.7687L26.2139 6.68185C26.2269 6.60059 26.2689 6.52658 26.3324 6.47314C26.3959 6.4197 26.4766 6.39033 26.5601 6.39033H26.8509C27.6103 6.39033 28.3267 6.39033 28.6969 6.817C28.9177 7.07154 28.9853 7.44973 28.9011 7.97215ZM40.9867 7.92427H38.9728C38.8894 7.92427 38.8086 7.95364 38.7452 8.00708C38.6817 8.06052 38.6397 8.13452 38.6266 8.21579L38.5375 8.77094L38.3967 8.56973C37.9607 7.94609 36.9885 7.7376 36.0181 7.7376C33.7927 7.7376 31.892 9.39882 31.5219 11.7291C31.3294 12.8915 31.603 14.0031 32.2721 14.7782C32.8857 15.4909 33.7638 15.7879 34.8086 15.7879C36.6017 15.7879 37.596 14.6515 37.596 14.6515L37.5062 15.2031C37.4982 15.2524 37.5012 15.3028 37.5149 15.3509C37.5286 15.399 37.5526 15.4436 37.5855 15.4816C37.6183 15.5196 37.6592 15.5501 37.7051 15.5711C37.7511 15.5921 37.8012 15.603 37.8518 15.6031H39.6658C39.8052 15.6031 39.9399 15.5541 40.0458 15.4649C40.1517 15.3756 40.2217 15.252 40.2433 15.1164L41.3317 8.32306C41.3397 8.27386 41.3368 8.22353 41.3231 8.17555C41.3094 8.12758 41.2854 8.08309 41.2526 8.04517C41.2198 8.00725 41.179 7.97681 41.1331 7.95593C41.0872 7.93506 41.0372 7.92426 40.9867 7.92427ZM38.1796 11.7873C37.9853 12.9212 37.0721 13.6825 35.9075 13.6825C35.3227 13.6825 34.8553 13.4976 34.5552 13.1473C34.2576 12.7994 34.1445 12.3043 34.2392 11.7528C34.4206 10.6285 35.3491 9.84245 36.4959 9.84245C37.0678 9.84245 37.5327 10.0297 37.8389 10.3831C38.1458 10.74 38.2675 11.2382 38.1796 11.7873ZM51.7121 7.92427H49.6884C49.593 7.92442 49.499 7.94752 49.4147 7.99156C49.3304 8.0356 49.2582 8.09925 49.2045 8.177L46.4134 12.2291L45.2302 8.33518C45.1939 8.21642 45.1198 8.11233 45.0188 8.03833C44.9178 7.96432 44.7953 7.92433 44.6694 7.92427H42.6808C42.625 7.92412 42.5699 7.93712 42.5202 7.96218C42.4705 7.98724 42.4276 8.02363 42.3951 8.06834C42.3625 8.11304 42.3413 8.16475 42.3331 8.21918C42.325 8.27361 42.3301 8.32917 42.3481 8.38124L44.5772 14.8285L42.4816 17.7443C42.4443 17.796 42.4222 17.8568 42.4177 17.92C42.4132 17.9833 42.4264 18.0465 42.456 18.1028C42.4855 18.1592 42.5302 18.2064 42.5851 18.2394C42.6401 18.2723 42.7032 18.2898 42.7675 18.2897H44.7887C44.8831 18.2899 44.9761 18.2674 45.0597 18.2244C45.1434 18.1813 45.2152 18.1189 45.269 18.0425L51.9999 8.4667C52.0364 8.41489 52.0578 8.35423 52.0618 8.29129C52.0658 8.22835 52.0522 8.16553 52.0226 8.10965C51.9929 8.05377 51.9483 8.00695 51.8936 7.97427C51.8389 7.94159 51.7761 7.9243 51.7121 7.92427Z" fill="#022273"/>
<path d="M58.4121 4.09033H54.206C54.0669 4.09039 53.9324 4.13937 53.8267 4.22848C53.7209 4.31758 53.6509 4.44095 53.6292 4.57639L51.9284 15.2049C51.9205 15.2541 51.9235 15.3044 51.9372 15.3524C51.9509 15.4004 51.9751 15.4449 52.0079 15.4828C52.0408 15.5207 52.0815 15.5511 52.1275 15.572C52.1734 15.5929 52.2234 15.6037 52.274 15.6037H54.4323C54.5297 15.6035 54.6238 15.5691 54.6978 15.5067C54.7717 15.4443 54.8206 15.3579 54.8357 15.2631L55.3184 12.2503C55.34 12.1148 55.4099 11.9913 55.5157 11.902C55.6214 11.8128 55.756 11.7637 55.8952 11.7637H57.2259C59.9967 11.7637 61.5949 10.4424 62.0131 7.82427C62.2018 6.67881 62.0204 5.77881 61.4762 5.14851C60.8791 4.45639 59.8196 4.09033 58.4121 4.09033ZM58.8973 7.97215C58.6679 9.45942 57.5149 9.45942 56.3995 9.45942H55.7655L56.2113 6.68184C56.2241 6.60058 56.2659 6.52651 56.3293 6.47304C56.3927 6.41957 56.4734 6.39023 56.5569 6.39033H56.8477C57.6065 6.39033 58.3235 6.39033 58.6937 6.81699C58.9145 7.07154 58.9815 7.44972 58.8973 7.97215ZM70.9823 7.92427H68.9696C68.8862 7.92404 68.8054 7.95334 68.742 8.00683C68.6786 8.06032 68.6367 8.13447 68.6241 8.21578L68.5349 8.77093L68.3935 8.56972C67.9575 7.94609 66.9859 7.7376 66.0156 7.7376C63.7902 7.7376 61.8901 9.39881 61.5199 11.7291C61.328 12.8915 61.6004 14.0031 62.2695 14.7782C62.8844 15.4909 63.7613 15.7879 64.806 15.7879C66.5991 15.7879 67.5935 14.6515 67.5935 14.6515L67.5037 15.2031C67.4957 15.2525 67.4986 15.303 67.5124 15.3512C67.5261 15.3993 67.5503 15.444 67.5833 15.482C67.6163 15.5201 67.6573 15.5506 67.7034 15.5715C67.7495 15.5924 67.7997 15.6032 67.8505 15.6031H69.6639C69.8031 15.603 69.9377 15.5539 70.0434 15.4647C70.1492 15.3754 70.2191 15.2519 70.2407 15.1164L71.3297 8.32305C71.3374 8.2737 71.3342 8.22328 71.3203 8.17527C71.3064 8.12725 71.2821 8.08277 71.2491 8.04488C71.2161 8.007 71.1751 7.9766 71.1291 7.95578C71.083 7.93496 71.0329 7.92421 70.9823 7.92427ZM68.1752 11.7873C67.9821 12.9212 67.0677 13.6824 65.903 13.6824C65.3195 13.6824 64.8509 13.4976 64.5508 13.1473C64.2532 12.7994 64.1413 12.3043 64.2348 11.7528C64.4174 10.6285 65.3447 9.84245 66.4915 9.84245C67.0634 9.84245 67.5283 10.0297 67.8345 10.3831C68.1426 10.74 68.2643 11.2382 68.1752 11.7873ZM73.3565 4.38184L71.6304 15.2049C71.6225 15.2541 71.6255 15.3044 71.6392 15.3524C71.653 15.4004 71.6771 15.4449 71.7099 15.4828C71.7428 15.5207 71.7836 15.5511 71.8295 15.572C71.8754 15.5929 71.9254 15.6037 71.976 15.6037H73.7113C73.9997 15.6037 74.2444 15.3976 74.2887 15.117L75.9908 4.48912C75.9987 4.43985 75.9957 4.38948 75.982 4.34148C75.9682 4.29347 75.9441 4.24896 75.9113 4.21101C75.8784 4.17306 75.8377 4.14257 75.7917 4.12163C75.7458 4.1007 75.6958 4.08981 75.6452 4.08972H73.7021C73.6186 4.09001 73.538 4.11957 73.4747 4.1731C73.4114 4.22662 73.3695 4.30063 73.3565 4.38184Z" fill="#167FC4"/>
<path d="M4.46792 17.6691L4.78952 15.6558L4.07314 15.6394H0.652344L3.02962 0.783032C3.0367 0.737639 3.06009 0.696265 3.09553 0.66645C3.13098 0.636635 3.17611 0.620366 3.22271 0.620608H8.99065C10.9055 0.620608 12.227 1.01334 12.9169 1.78849C13.2404 2.15212 13.4464 2.53212 13.546 2.95031C13.6505 3.38909 13.6524 3.91334 13.5503 4.55273L13.5429 4.5994V5.00909L13.8663 5.1897C14.1133 5.313 14.3352 5.47978 14.5212 5.68182C14.7979 5.99273 14.9769 6.38788 15.0525 6.85637C15.1306 7.33818 15.1048 7.91152 14.9769 8.56061C14.8293 9.30728 14.5907 9.95758 14.2685 10.4897C13.9842 10.9664 13.602 11.3793 13.1463 11.7018C12.7183 12.0012 12.2098 12.2285 11.6348 12.3739C11.0777 12.517 10.4425 12.5891 9.74577 12.5891H9.29688C8.97589 12.5891 8.66413 12.703 8.41939 12.9073C8.175 13.1137 8.01288 13.3989 7.96189 13.7121L7.92807 13.8933L7.35988 17.4418L7.33406 17.5721C7.32729 17.6133 7.31561 17.6339 7.29839 17.6479C7.28171 17.6613 7.2609 17.6688 7.23936 17.6691H4.46792Z" fill="#022273"/>
<path d="M14.1732 4.64673C14.156 4.75521 14.1363 4.86612 14.1142 4.98006C13.3535 8.82915 10.7512 10.1588 7.42757 10.1588H5.73531C5.32885 10.1588 4.98634 10.4498 4.923 10.8449L4.05658 16.2607L3.81123 17.7958C3.80145 17.8567 3.80518 17.919 3.82216 17.9783C3.83914 18.0376 3.86897 18.0926 3.90959 18.1395C3.9502 18.1864 4.00065 18.2241 4.05744 18.2499C4.11424 18.2757 4.17604 18.2891 4.23859 18.2892H7.24002C7.59544 18.2892 7.89736 18.0346 7.95332 17.6892L7.98284 17.5388L8.54795 14.0043L8.58423 13.8104C8.63957 13.4637 8.94211 13.2092 9.29754 13.2092H9.74643C12.6544 13.2092 14.9308 12.0455 15.5962 8.67824C15.8741 7.27158 15.7302 6.09703 14.9948 5.27097C14.7617 5.01543 14.4833 4.8039 14.1732 4.64673Z" fill="#167FC4"/>
<path d="M13.3764 4.33388C13.1335 4.26463 12.8865 4.21059 12.6367 4.17206C12.1431 4.0973 11.6442 4.06143 11.1449 4.06479H6.62397C6.45192 4.06466 6.2855 4.1252 6.15479 4.23546C6.02408 4.34573 5.9377 4.49844 5.91128 4.666L4.94955 10.6696L4.92188 10.8448C4.95184 10.6537 5.05021 10.4794 5.1992 10.3536C5.3482 10.2278 5.53797 10.1586 5.73418 10.1587H7.42644C10.7501 10.1587 13.3524 8.82843 14.1131 4.97994C14.1358 4.866 14.1549 4.75509 14.1721 4.64661C13.9714 4.54287 13.7622 4.4559 13.5467 4.38661C13.4902 4.36814 13.4335 4.35056 13.3764 4.33388Z" fill="#022273"/>
<path d="M5.91178 4.66606C5.93798 4.49845 6.02431 4.34567 6.15508 4.23546C6.28586 4.12525 6.45241 4.06493 6.62447 4.06545H11.1454C11.681 4.06545 12.1809 4.1 12.6372 4.17273C12.9459 4.22055 13.2504 4.29208 13.5478 4.38667C13.7723 4.46 13.9808 4.54667 14.1732 4.64667C14.3995 3.22424 14.1714 2.25576 13.391 1.37879C12.5308 0.413333 10.9781 0 8.99129 0H3.22335C2.81751 0 2.47131 0.290909 2.40858 0.686667L0.00609367 15.6958C-0.00509672 15.7654 -0.000839159 15.8367 0.0185735 15.9046C0.0379862 15.9725 0.0720932 16.0355 0.118548 16.0891C0.165004 16.1428 0.222705 16.1859 0.287682 16.2155C0.35266 16.2451 0.423372 16.2605 0.494955 16.2606H4.05595L4.95005 10.6697L5.91178 4.66606Z" fill="#022273"/>
</svg>
