<svg width="49" height="16" viewBox="0 0 49 16" fill="none" xmlns="http://www.w3.org/2000/svg">
<g clip-path="url(#clip0)">
<path d="M21.2328 15.7692H17.2634L19.7461 0.280762H23.7153L21.2328 15.7692Z" fill="#00579F"/>
<path d="M35.622 0.659404C34.8391 0.346018 33.5973 0 32.0618 0C28.142 0 25.3817 2.10895 25.3647 5.12412C25.3322 7.3487 27.341 8.58429 28.8435 9.32604C30.3792 10.084 30.9012 10.5787 30.9012 11.2543C30.8856 12.2919 29.6603 12.7702 28.5175 12.7702C26.9328 12.7702 26.0836 12.5236 24.7932 11.9464L24.2705 11.6989L23.7151 15.1757C24.646 15.6036 26.3612 15.9834 28.142 16C32.3069 16 35.0184 13.9237 35.0505 10.7105C35.0664 8.94739 34.0056 7.59639 31.7187 6.49242C30.3304 5.78374 29.4802 5.30589 29.4802 4.58079C29.4964 3.9216 30.1993 3.24643 31.7664 3.24643C33.0568 3.21336 34.0049 3.52631 34.7232 3.83948L35.0822 4.00394L35.622 0.659404Z" fill="#00579F"/>
<path d="M40.8985 10.2822C41.2254 9.3924 42.4833 5.94865 42.4833 5.94865C42.4668 5.98172 42.8095 5.04244 43.0055 4.46582L43.2829 5.80039C43.2829 5.80039 44.0346 9.50781 44.1978 10.2822C43.5775 10.2822 41.6826 10.2822 40.8985 10.2822ZM45.7982 0.280762H42.7279C41.7811 0.280762 41.0618 0.560641 40.6533 1.56584L34.7573 15.769H38.9222C38.9222 15.769 39.6079 13.8573 39.7553 13.4456C40.2122 13.4456 44.2638 13.4456 44.8516 13.4456C44.9656 13.9894 45.3252 15.769 45.3252 15.769H49.0005L45.7982 0.280762Z" fill="#00579F"/>
<path d="M13.9482 0.280762L10.0609 10.8424L9.63608 8.70036C8.9174 6.22875 6.66346 3.5434 4.14819 2.20816L7.70882 15.7528H11.9063L18.1454 0.280762H13.9482Z" fill="#00579F"/>
<path d="M6.45162 0.280762H0.0653342L0 0.59371C4.9817 1.87901 8.28099 4.97718 9.63651 8.70102L8.24821 1.58271C8.01965 0.593491 7.31725 0.313392 6.45162 0.280762Z" fill="#F4A622"/>
</g>
<defs>
<clipPath id="clip0">
<rect width="49" height="16" fill="white"/>
</clipPath>
</defs>
</svg>
